/* XPM */
static char * chromium_xpm[] = {
"16 16 113 2",
"  	c None",
". 	c #4575D7",
"+ 	c #4272D9",
"@ 	c #4172D9",
"# 	c #4071D9",
"$ 	c #3E6FD8",
"% 	c #3F6FD5",
"& 	c #4975D6",
"* 	c #4575DA",
"= 	c #4474D9",
"- 	c #4373D9",
"; 	c #3D6FD8",
"> 	c #3C6ED8",
", 	c #3B6DD4",
"' 	c #436BCE",
") 	c #4471D4",
"! 	c #4573D7",
"~ 	c #3D6ED8",
"{ 	c #3A6CD7",
"] 	c #3968D9",
"^ 	c #6194EC",
"/ 	c #4B71CC",
"( 	c #446ED1",
"_ 	c #4470D4",
": 	c #4372D8",
"< 	c #4B78DA",
"[ 	c #7196DF",
"} 	c #869ED7",
"| 	c #597BCE",
"1 	c #4F74CF",
"2 	c #5172CF",
"3 	c #5279D1",
"4 	c #4F78D2",
"5 	c #659DF1",
"6 	c #618ADD",
"7 	c #3F69CB",
"8 	c #416DD3",
"9 	c #6E8FDC",
"0 	c #C6D6F4",
"a 	c #8FB6F5",
"b 	c #8EB5F5",
"c 	c #CAD9F3",
"d 	c #9EB1E1",
"e 	c #87A3E0",
"f 	c #8CA8E5",
"g 	c #8FADE8",
"h 	c #91AEE7",
"i 	c #6A9FF7",
"j 	c #4A73D0",
"k 	c #4970CF",
"l 	c #C7D6F4",
"m 	c #528FF5",
"n 	c #4D8CF5",
"o 	c #4C8CF5",
"p 	c #4F8DF5",
"q 	c #CCDBF4",
"r 	c #9FBBF1",
"s 	c #9CBAF2",
"t 	c #9CBDF4",
"u 	c #A0BFF6",
"v 	c #699EF7",
"w 	c #6294EB",
"x 	c #728DD5",
"y 	c #4C8BF5",
"z 	c #4A8AF4",
"A 	c #90B6F4",
"B 	c #BAD1F7",
"C 	c #A4C4FA",
"D 	c #A3C3FA",
"E 	c #A2C3FA",
"F 	c #679DF7",
"G 	c #689EF7",
"H 	c #809FE3",
"I 	c #4B8BF5",
"J 	c #498AF4",
"K 	c #90B6F5",
"L 	c #679DF6",
"M 	c #6D9FF5",
"N 	c #C6DAF2",
"O 	c #4D8CF4",
"P 	c #C5D9ED",
"Q 	c #A8C6FA",
"R 	c #A2C2FA",
"S 	c #609AF1",
"T 	c #669CF6",
"U 	c #88B1F6",
"V 	c #C9DBF5",
"W 	c #C9D8F3",
"X 	c #A7C3F0",
"Y 	c #A0C1FA",
"Z 	c #5F96F1",
"` 	c #649BF6",
" .	c #6B9FF6",
"..	c #8DB4F6",
"+.	c #8AB0F1",
"@.	c #759CE8",
"#.	c #A3C2FA",
"$.	c #6096F4",
"%.	c #639AF6",
"&.	c #629AF6",
"*.	c #5D92EE",
"=.	c #9EBCF5",
"-.	c #A0C0F9",
";.	c #5F97F3",
">.	c #6299F6",
",.	c #6198F6",
"'.	c #82A6ED",
").	c #5C90EF",
"!.	c #6092EE",
"~.	c #6199F6",
"{.	c #6296EE",
"].	c #9DB8F1",
"^.	c #9FC0F8",
"                                ",
"          . + @ # $ %           ",
"      & * = - @ # $ ; > ,       ",
"    ' ) ! = + @ # $ ~ > { ]     ",
"  ^ / ( _ : < [ } | 1 2 3 4     ",
"  5 6 7 8 9 0 a b c d e f g h   ",
"  i i j k l m n o p q r s t u   ",
"  v v w x a n o y z A B C D E   ",
"  F G G H b o y I J K B D D E   ",
"  L L L M N p z J O P Q D E R   ",
"  S T T T U V A K W X D E E Y   ",
"  Z ` ` ` `  ...+.@.#.E E R     ",
"    $.` %.%.&.&.*.=.E E R -.    ",
"      ;.&.>.>.,.'.E E R -.      ",
"        ).!.~.{.].R ^.          ",
"                                "};
