/* XPM */
static char * wilber16_xpm[] = {
"16 15 139 2",
"  	c None",
". 	c #CFC8B7",
"+ 	c #DED6C0",
"@ 	c #DFD6C1",
"# 	c #E7E4D8",
"$ 	c #A59B81",
"% 	c #C9C0B3",
"& 	c #AEA48B",
"* 	c #867B64",
"= 	c #837C6C",
"- 	c #C2BBAD",
"; 	c #77705F",
"> 	c #E0E1DE",
", 	c #968870",
"' 	c #776D57",
") 	c #736A56",
"! 	c #918A79",
"~ 	c #958D7C",
"{ 	c #7C7360",
"] 	c #68614F",
"^ 	c #665F4E",
"/ 	c #FFFFFF",
"( 	c #E2DFD8",
"_ 	c #9A8F7A",
": 	c #CEC9C0",
"< 	c #DDD9D3",
"[ 	c #CCC8BD",
"} 	c #6A634D",
"| 	c #645B48",
"1 	c #5C5544",
"2 	c #5A5243",
"3 	c #564E3F",
"4 	c #575142",
"5 	c #5E5D5C",
"6 	c #3E3D3F",
"7 	c #E9E4D9",
"8 	c #E2E3E4",
"9 	c #1C1D1D",
"0 	c #ECE8E4",
"a 	c #B4B3B5",
"b 	c #F7F7FB",
"c 	c #817A65",
"d 	c #665E4C",
"e 	c #544E40",
"f 	c #484236",
"g 	c #423C2E",
"h 	c #545145",
"i 	c #858584",
"j 	c #D5D5D5",
"k 	c #272827",
"l 	c #444037",
"m 	c #ADA8A1",
"n 	c #727475",
"o 	c #CEC8BE",
"p 	c #CDCFD0",
"q 	c #000000",
"r 	c #88888A",
"s 	c #7E7767",
"t 	c #5D5545",
"u 	c #4C4439",
"v 	c #3F382C",
"w 	c #363227",
"x 	c #615F5E",
"y 	c #686767",
"z 	c #464646",
"A 	c #323233",
"B 	c #4F4F50",
"C 	c #786F5E",
"D 	c #8B826B",
"E 	c #807861",
"F 	c #C0BCB3",
"G 	c #CDCCC9",
"H 	c #A8A499",
"I 	c #625947",
"J 	c #524E3E",
"K 	c #494236",
"L 	c #3E392C",
"M 	c #2D2C27",
"N 	c #777777",
"O 	c #939393",
"P 	c #252626",
"Q 	c #565557",
"R 	c #717275",
"S 	c #605947",
"T 	c #706955",
"U 	c #796F5B",
"V 	c #716752",
"W 	c #67614E",
"X 	c #605A46",
"Y 	c #413C32",
"Z 	c #484237",
"` 	c #423B31",
" .	c #3A3628",
"..	c #2C2D2C",
"+.	c #969695",
"@.	c #565556",
"#.	c #797772",
"$.	c #6C6965",
"%.	c #4B4536",
"&.	c #5C5443",
"*.	c #675F4F",
"=.	c #5A5444",
"-.	c #4D473A",
";.	c #37342A",
">.	c #585654",
",.	c #575348",
"'.	c #383428",
").	c #1B1914",
"!.	c #545254",
"~.	c #A7A7A8",
"{.	c #524D45",
"].	c #16160E",
"^.	c #15140D",
"/.	c #110E0C",
"(.	c #1D1915",
"_.	c #38352D",
":.	c #615C53",
"<.	c #716D60",
"[.	c #3A362F",
"}.	c #12100D",
"|.	c #242426",
"1.	c #9E9F9D",
"2.	c #EFECE8",
"3.	c #A6A6A6",
"4.	c #575856",
"5.	c #252425",
"6.	c #1E1C1A",
"7.	c #201F1C",
"8.	c #171613",
"9.	c #111212",
"0.	c #414140",
"a.	c #8E8E92",
"b.	c #7A7B7B",
"c.	c #636363",
"d.	c #5E5F5E",
"e.	c #606062",
"f.	c #737372",
"g.	c #959596",
"h.	c #CACACA",
"      .                         ",
"      + @                       ",
"      # $ %                     ",
"        & * =               - ; ",
"        > , ' ) !       ~ { ] ^ ",
"        / ( _ : < [ } | 1 2 3 4 ",
"  5 6 7 8 9 0 / a b c d e f g h ",
"i j k l m n o p q r s t u v w x ",
"y z A B C D E F G H I J K L M N ",
"O P Q R S T U V W X Y Z `  ...+.",
"  @.#.$.%.&.*.=.-.;.>.,.'.).!.~.",
"      {.].^./.(._.:.<.[.}.|.1.  ",
"      2.3.4.5.6.7.8.q 9.0.a.    ",
"            b.c.d.e.f.g.h.      ",
"                                "};
