/* XPM */
static char * chrome_xpm[] = {
"16 16 154 2",
"  	c None",
". 	c #DC4B3D",
"+ 	c #DE5847",
"@ 	c #E15D4A",
"# 	c #DF5B49",
"$ 	c #DD5142",
"% 	c #DA4436",
"& 	c #D72D26",
"* 	c #D7372F",
"= 	c #DC4337",
"- 	c #EB5749",
"; 	c #EC5A4B",
"> 	c #EB574A",
", 	c #EA5247",
"' 	c #DB3D32",
") 	c #D52F29",
"! 	c #D32523",
"~ 	c #E60316",
"{ 	c #D61F1F",
"] 	c #E43935",
"^ 	c #E53E38",
"/ 	c #E5423A",
"( 	c #E64038",
"_ 	c #E63E37",
": 	c #E63B38",
"< 	c #E43536",
"[ 	c #E32E31",
"} 	c #D0151C",
"| 	c #CF071A",
"1 	c #656526",
"2 	c #E91825",
"3 	c #E3282A",
"4 	c #E12626",
"5 	c #E31D1A",
"6 	c #EE5E59",
"7 	c #EB5347",
"8 	c #DF3E17",
"9 	c #DF3D22",
"0 	c #DE3D26",
"a 	c #DF3B25",
"b 	c #CF2815",
"c 	c #39A73A",
"d 	c #30B53E",
"e 	c #B42B22",
"f 	c #E2131C",
"g 	c #E93F42",
"h 	c #FFFEFD",
"i 	c #C8EEFF",
"j 	c #CAF0FF",
"k 	c #FFFFFE",
"l 	c #EECC34",
"m 	c #EBC50B",
"n 	c #F1D10F",
"o 	c #EBCA00",
"p 	c #EBCB00",
"q 	c #3AA439",
"r 	c #48C14B",
"s 	c #5B7631",
"t 	c #D50005",
"u 	c #FFFFFF",
"v 	c #529AD7",
"w 	c #63A1D7",
"x 	c #65A2D8",
"y 	c #72A9E1",
"z 	c #FFD200",
"A 	c #FDD405",
"B 	c #FDD308",
"C 	c #EBC100",
"D 	c #3BA339",
"E 	c #4CBB49",
"F 	c #40BE46",
"G 	c #A15F4D",
"H 	c #B5DBFC",
"I 	c #3E83C7",
"J 	c #5793CD",
"K 	c #5793CE",
"L 	c #4083C8",
"M 	c #ABCDFF",
"N 	c #FFE140",
"O 	c #FCD102",
"P 	c #FCD208",
"Q 	c #EBC000",
"R 	c #399E38",
"S 	c #4DB949",
"T 	c #48BB46",
"U 	c #73AD64",
"V 	c #B3D0F6",
"W 	c #2674BE",
"X 	c #3B82C5",
"Y 	c #3C82C5",
"Z 	c #2675BF",
"` 	c #A2C8FC",
" .	c #E9BD00",
"..	c #379837",
"+.	c #4CB849",
"@.	c #4BB847",
"#.	c #3EB538",
"$.	c #1562AA",
"%.	c #1265AB",
"&.	c #1365AB",
"*.	c #1063AF",
"=.	c #FFD000",
"-.	c #FCD206",
";.	c #E4B603",
">.	c #348F36",
",.	c #3DA53B",
"'.	c #47B642",
").	c #69C561",
"!.	c #A7BCE3",
"~.	c #A4BDE4",
"{.	c #F5FCFF",
"].	c #F3D52D",
"^.	c #FED100",
"/.	c #ECC001",
"(.	c #DFAE0A",
"_.	c #369136",
":.	c #4CB348",
"<.	c #4BB848",
"[.	c #3FB438",
"}.	c #7CCF75",
"|.	c #6CC377",
"1.	c #84A715",
"2.	c #FFD400",
"3.	c #FCD207",
"4.	c #F9CE0D",
"5.	c #E0AE08",
"6.	c #2C8132",
"7.	c #359136",
"8.	c #4BB048",
"9.	c #4BB649",
"0.	c #4AB847",
"a.	c #42B746",
"b.	c #52AC3A",
"c.	c #FFD203",
"d.	c #FFD10A",
"e.	c #F8CA11",
"f.	c #DEAD0A",
"g.	c #D19D14",
"h.	c #287C31",
"i.	c #318734",
"j.	c #3B9839",
"k.	c #48AD48",
"l.	c #37AA4B",
"m.	c #D3BF1C",
"n.	c #FDC813",
"o.	c #E3B10C",
"p.	c #D5A111",
"q.	c #CC9517",
"r.	c #277930",
"s.	c #247C32",
"t.	c #5E8729",
"u.	c #DF9A11",
"v.	c #CC9316",
"w.	c #C99017",
"                                ",
"          . + @ # $ %           ",
"      & * = - ; > , ' ) !       ",
"    ~ { ] ^ / ( _ : < [ } |     ",
"    1 2 3 4 5 6 7 8 9 0 a b     ",
"  c d e f g h i j k l m n o p   ",
"  q r s t u v w x y k z A B C   ",
"  D E F G H I J K L M N O P Q   ",
"  R S T U V W X Y Z ` N O P  .  ",
"  ..+.@.#.u $.%.&.*.u =.-.P ;.  ",
"  >.,.+.'.).u !.~.{.].^.B /.(.  ",
"    _.:.<.'.[.}.|.1.2.3.4.5.    ",
"    6.7.8.9.0.a.b.c.d.e.f.g.    ",
"      h.i.j.k.l.m.n.o.p.q.      ",
"          r.s.t.u.v.w.          ",
"                                "};
